<?xml version="1.0" standalone="no"?><!DOCTYPE svg PUBLIC "-//W3C//DTD SVG 1.1//EN" "http://www.w3.org/Graphics/SVG/1.1/DTD/svg11.dtd"><svg t="1513263155395" class="icon" style="" viewBox="0 0 1024 1024" version="1.1" xmlns="http://www.w3.org/2000/svg" p-id="1436" xmlns:xlink="http://www.w3.org/1999/xlink" width="200" height="200"><defs><style type="text/css"></style></defs><path d="M730.375 715.454h-46.971v-325.349h-1.719l-141.485 325.349h-42.384l-141.484-325.349h-1.719v325.349h-46.971v-408.978h58.425l152.37 348.833h1.716l151.794-348.833h58.429z" fill="#1296db" p-id="1437"></path><path d="M519.013 80.908c-237.515 0-430.057 192.544-430.057 430.057 0 237.517 192.544 430.058 430.057 430.058 237.511 0 430.058-192.545 430.058-430.058s-192.546-430.057-430.058-430.057zM519.013 881.597c-204.694 0-370.627-165.936-370.627-370.631 0-204.693 165.935-370.627 370.627-370.627 204.693 0 370.631 165.936 370.631 370.627 0 204.693-165.938 370.631-370.631 370.631z" fill="#1296db" p-id="1438"></path></svg>